<?xml version="1.0" encoding="utf-8"?>
<!-- Generator: Adobe Illustrator 16.0.0, SVG Export Plug-In . SVG Version: 6.00 Build 0)  -->
<!DOCTYPE svg PUBLIC "-//W3C//DTD SVG 1.1//EN" "http://www.w3.org/Graphics/SVG/1.1/DTD/svg11.dtd">
<svg version="1.1" id="Layer_2" xmlns="http://www.w3.org/2000/svg" xmlns:xlink="http://www.w3.org/1999/xlink" x="0px" y="0px"
	 width="374.5px" height="327.5px" viewBox="0 0 374.5 327.5" enable-background="new 0 0 374.5 327.5" xml:space="preserve">
<g>
	<path d="M150.961,139.476V20.635c0,0,0-11.463-13.874-11.463c-13.875,0-15.082,12.668-15.082,12.668v115.222
		c0,0,4.222-3.62,13.271-3.62C144.326,133.443,150.961,139.476,150.961,139.476z"/>
	<path d="M173.583,184.72c7.83,0,14.178-5.882,14.178-13.136V98.921c0-7.254-6.348-13.134-14.178-13.134
		c-7.829,0-14.175,5.88-14.175,13.134v72.664C159.408,178.839,165.754,184.72,173.583,184.72z"/>
	<path d="M301.435,131.605l20.388,22.142c5.128,5.131,13.777,4.8,19.312-0.735c5.537-5.537,5.865-14.183,0.735-19.315
		l-24.546-26.655c-2.455-2.455-5.718-3.645-9.059-3.626c-0.396-0.097-0.798-0.162-1.208-0.162h-45.096V83.345h39.476l20.388,22.141
		c5.128,5.131,13.777,4.8,19.312-0.735c5.537-5.537,5.865-14.185,0.735-19.314L317.326,58.78c-2.455-2.454-5.717-3.645-9.059-3.625
		c-0.395-0.097-0.798-0.163-1.208-0.163h-45.097V40.542c0,0-4.222-9.049-15.082-9.652c-10.858-0.603-13.271,12.066-13.271,12.066
		v141.161c0,0-4.826,13.876-21.113,16.288s-22.32-12.668-22.32-12.668s-15.685,6.636-25.335,4.224
		c-9.652-2.414-15.685-19.908-15.685-19.908c-1.206,6.637-23.527,17.494-23.527,17.494l-1.206,25.337l-7.841-3.619v-27.749
		l27.146-15.685c0,0,10.255-9.652,3.62-18.701c-6.636-9.049-20.51-3.62-20.51-3.62s-8.462,1.655-18.218,7.42
		c-0.456-0.127-0.917-0.21-1.393-0.21h-46.75c-0.412,0-0.813,0.065-1.209,0.161c-3.34-0.019-6.602,1.172-9.058,3.628l-24.546,26.656
		c-5.129,5.13-4.801,13.778,0.735,19.314s14.184,5.865,19.312,0.735l20.386-22.141h17.946c-1.65,4.154-2.92,8.77-3.665,13.903
		c-0.262,1.818-0.448,3.594-0.596,5.351H60.476c-0.412,0-0.813,0.066-1.209,0.16c-3.34-0.018-6.603,1.173-9.058,3.628
		l-24.546,26.657c-5.13,5.13-4.801,13.777,0.735,19.314s14.184,5.865,19.312,0.735l20.387-22.142h15.946
		c1.951,7.742,4.738,14.26,7.442,19.355H60.478c-0.412,0-0.813,0.066-1.209,0.16c-3.34-0.018-6.602,1.173-9.058,3.626
		l-24.546,26.658c-5.129,5.13-4.801,13.775,0.735,19.314c5.537,5.536,14.184,5.864,19.312,0.734l20.386-22.139h41.122
		c1.006,0,1.967-0.312,2.862-0.852c22.017,23.795,33.036,18.977,33.036,18.977h86.869c0,0,10.858-3.015,21.114-10.857
		c2.81-2.149,4.892-5.024,6.439-8.064c0.869,0.509,1.8,0.798,2.772,0.798h41.122l20.388,22.139
		c5.128,5.13,13.777,4.802,19.312-0.735c5.537-5.538,5.865-14.184,0.735-19.313l-24.546-26.659
		c-2.455-2.454-5.718-3.644-9.059-3.625c-0.396-0.095-0.798-0.161-1.208-0.161h-45.096v-19.354h39.476l20.388,22.141
		c5.128,5.13,13.777,4.8,19.312-0.735c5.537-5.536,5.865-14.184,0.735-19.313l-24.546-26.657c-2.455-2.456-5.717-3.645-9.059-3.628
		c-0.395-0.094-0.798-0.161-1.208-0.161h-45.097v-19.253h39.476l20.388,22.141c5.128,5.13,13.777,4.8,19.312-0.735
		c5.537-5.537,5.865-14.185,0.735-19.314l-24.546-26.657c-2.456-2.456-5.718-3.645-9.059-3.628
		c-0.396-0.095-0.798-0.161-1.208-0.161h-45.096v-21.117H301.435z"/>
	<path d="M210.984,192.563c7.83,0,14.178-5.882,14.178-13.136v-72.665c0-7.254-6.348-13.134-14.178-13.134
		c-7.829,0-14.177,5.88-14.177,13.134v72.662C196.809,186.681,203.157,192.563,210.984,192.563z"/>
</g>
</svg>
